# xmcd
#
# Track frame offsets: 
#        150
#        13899
#        26224
#        35244
#        49693
#        63811
#        77106
#        89191
#        103793
#        115178
#        128520
#        141995
#        154074
#        161625
#        178660
#        187735
#        199188
#        214524
#        228069
#        237599
#
# Disc length: 3404 seconds
#
# Revision: 0
# Processed by: cddbd v1.5.2PL0 Copyright (c) Steve Scherf et al.
# Submitted via: ExactAudioCopy v0.99pb3
#
DISCID=160d4a14
DTITLE=Les compagnons d'Accordéon - The world of France - 20 French me
DTITLE=lodies
DYEAR=1989
DGENRE=Easy Listening
TTITLE0=Valse des copains
TTITLE1=Java de Marseille
TTITLE2=Rue aux fleurs
TTITLE3=Plaisir d'amour
TTITLE4=Les amants des Bois de Boulogne
TTITLE5=Les filles de Bapaune
TTITLE6=Pecheurs des perles
TTITLE7=Nous deux
TTITLE8=Charmante Yvonne
TTITLE9=Dance avec Cécile
TTITLE10=Je t'aime Mariette
TTITLE11=Les patineurs
TTITLE12=Adieu à toi
TTITLE13=Marche des travailleurs
TTITLE14=Les yeux noirs
TTITLE15=Can can
TTITLE16=Vin rouge
TTITLE17=Marche d'Alsace
TTITLE18=Allons les copains
TTITLE19=Sambre et meuse
EXTD=
EXTT0=
EXTT1=
EXTT2=
EXTT3=
EXTT4=
EXTT5=
EXTT6=
EXTT7=
EXTT8=
EXTT9=
EXTT10=
EXTT11=
EXTT12=
EXTT13=
EXTT14=
EXTT15=
EXTT16=
EXTT17=
EXTT18=
EXTT19=
PLAYORDER=
